<?xml version="1.0" standalone="no"?><!DOCTYPE svg PUBLIC "-//W3C//DTD SVG 1.1//EN" "http://www.w3.org/Graphics/SVG/1.1/DTD/svg11.dtd"><svg width="100%" height="100%" viewBox="0 0 211 28" version="1.1" xmlns="http://www.w3.org/2000/svg" xmlns:xlink="http://www.w3.org/1999/xlink" xml:space="preserve" style="fill-rule:evenodd;clip-rule:evenodd;stroke-miterlimit:1.41421;"><g id="slogan"><path id="text" d="M37.748,20.135l-0.91,3.152l0,2.359l-0.337,0l0,-2.359l-0.91,-3.152l0.382,0l0.695,2.48l0.698,-2.48l0.382,0Z" style="fill:#373535;fill-rule:nonzero;"/><path d="M39.201,21.478c0.296,0 0.531,0.196 0.706,0.586c0.175,0.391 0.262,0.905 0.262,1.543c0,0.643 -0.087,1.162 -0.262,1.555c-0.175,0.393 -0.41,0.59 -0.706,0.59c-0.297,0 -0.533,-0.196 -0.707,-0.588c-0.174,-0.392 -0.261,-0.911 -0.261,-1.557c0,-0.64 0.087,-1.155 0.262,-1.545c0.175,-0.389 0.41,-0.584 0.706,-0.584ZM39.201,25.221c0.196,0 0.35,-0.157 0.463,-0.469c0.112,-0.313 0.169,-0.692 0.169,-1.137c0,-0.469 -0.056,-0.854 -0.167,-1.156c-0.112,-0.302 -0.267,-0.453 -0.465,-0.453c-0.199,0 -0.354,0.149 -0.464,0.447c-0.11,0.298 -0.165,0.685 -0.165,1.162c0,0.453 0.055,0.834 0.167,1.143c0.111,0.308 0.265,0.463 0.462,0.463Z" style="fill:#373535;fill-rule:nonzero;"/><path d="M42.568,25.646l-0.322,0l0,-0.601c-0.231,0.466 -0.475,0.699 -0.731,0.699c-0.403,0 -0.605,-0.462 -0.605,-1.387l0,-2.781l0.322,0l0,2.605c0,0.347 0.029,0.605 0.087,0.776c0.058,0.17 0.156,0.256 0.293,0.256c0.197,0 0.408,-0.232 0.634,-0.696l0,-2.941l0.322,0l0,4.07Z" style="fill:#373535;fill-rule:nonzero;"/><path d="M45.142,21.685l-0.13,0.586c-0.142,-0.117 -0.264,-0.175 -0.367,-0.175c-0.095,0 -0.188,0.051 -0.279,0.154c-0.091,0.103 -0.174,0.25 -0.251,0.441c-0.076,0.192 -0.114,0.299 -0.114,0.322l0,2.633l-0.32,0l0,-4.07l0.32,0l0,0.824c0.172,-0.614 0.395,-0.922 0.668,-0.922c0.163,0 0.32,0.069 0.473,0.207Z" style="fill:#373535;fill-rule:nonzero;"/><path d="M49.489,20.037c0.061,0 0.113,0.041 0.155,0.123c0.043,0.082 0.064,0.18 0.064,0.295c0,0.12 -0.021,0.22 -0.063,0.301c-0.042,0.08 -0.094,0.121 -0.156,0.121c-0.056,0 -0.106,-0.043 -0.149,-0.127c-0.044,-0.085 -0.065,-0.183 -0.065,-0.295c0,-0.112 0.021,-0.21 0.065,-0.293c0.043,-0.083 0.093,-0.125 0.149,-0.125ZM49.646,25.646l-0.322,0l0,-3.543l-0.633,0l0,-0.527l0.955,0l0,4.07Z" style="fill:#373535;fill-rule:nonzero;"/><path d="M52.72,25.646l-0.322,0l0,-2.609c0,-0.362 -0.031,-0.624 -0.092,-0.787c-0.061,-0.163 -0.157,-0.244 -0.288,-0.244c-0.197,0 -0.408,0.231 -0.634,0.695l0,2.945l-0.322,0l0,-4.07l0.322,0l0,0.598c0.232,-0.464 0.475,-0.696 0.731,-0.696c0.403,0 0.605,0.461 0.605,1.383l0,2.785Z" style="fill:#373535;fill-rule:nonzero;"/><path d="M57.794,25.646l-0.322,0l0,-2.609c0,-0.362 -0.031,-0.624 -0.092,-0.787c-0.061,-0.163 -0.157,-0.244 -0.288,-0.244c-0.197,0 -0.408,0.231 -0.634,0.695l0,2.945l-0.322,0l0,-5.511l0.322,0l0,2.039c0.232,-0.464 0.475,-0.696 0.731,-0.696c0.403,0 0.605,0.461 0.605,1.383l0,2.785Z" style="fill:#373535;fill-rule:nonzero;"/><path d="M59.497,21.478c0.296,0 0.531,0.196 0.706,0.586c0.175,0.391 0.262,0.905 0.262,1.543c0,0.643 -0.087,1.162 -0.262,1.555c-0.175,0.393 -0.41,0.59 -0.706,0.59c-0.297,0 -0.533,-0.196 -0.707,-0.588c-0.174,-0.392 -0.261,-0.911 -0.261,-1.557c0,-0.64 0.087,-1.155 0.262,-1.545c0.175,-0.389 0.41,-0.584 0.706,-0.584ZM59.497,25.221c0.195,0 0.35,-0.157 0.462,-0.469c0.113,-0.313 0.17,-0.692 0.17,-1.137c0,-0.469 -0.056,-0.854 -0.167,-1.156c-0.112,-0.302 -0.267,-0.453 -0.465,-0.453c-0.199,0 -0.354,0.149 -0.464,0.447c-0.11,0.298 -0.166,0.685 -0.166,1.162c0,0.453 0.056,0.834 0.168,1.143c0.111,0.308 0.265,0.463 0.462,0.463Z" style="fill:#373535;fill-rule:nonzero;"/><path d="M62.864,25.646l-0.322,0l0,-0.601c-0.231,0.466 -0.475,0.699 -0.731,0.699c-0.403,0 -0.605,-0.462 -0.605,-1.387l0,-2.781l0.322,0l0,2.605c0,0.347 0.029,0.605 0.087,0.776c0.058,0.17 0.156,0.256 0.293,0.256c0.197,0 0.408,-0.232 0.634,-0.696l0,-2.941l0.322,0l0,4.07Z" style="fill:#373535;fill-rule:nonzero;"/><path d="M65.18,22.158c-0.18,-0.112 -0.35,-0.168 -0.51,-0.168c-0.175,0 -0.313,0.055 -0.415,0.166c-0.102,0.111 -0.153,0.259 -0.153,0.443c0,0.118 0.024,0.22 0.071,0.307c0.046,0.087 0.14,0.169 0.28,0.244l0.308,0.168c0.142,0.076 0.257,0.166 0.347,0.272c0.089,0.105 0.156,0.233 0.201,0.382c0.045,0.15 0.067,0.324 0.067,0.522c0,0.388 -0.086,0.695 -0.258,0.92c-0.172,0.225 -0.391,0.338 -0.656,0.338c-0.265,0 -0.483,-0.076 -0.655,-0.227l0.062,-0.527c0.18,0.161 0.374,0.242 0.58,0.242c0.179,0 0.325,-0.063 0.437,-0.189c0.112,-0.127 0.168,-0.294 0.168,-0.502c0,-0.141 -0.028,-0.267 -0.084,-0.377c-0.055,-0.111 -0.186,-0.226 -0.393,-0.346c-0.166,-0.096 -0.289,-0.169 -0.367,-0.217c-0.079,-0.048 -0.152,-0.119 -0.219,-0.213c-0.067,-0.093 -0.119,-0.205 -0.154,-0.336c-0.035,-0.13 -0.052,-0.276 -0.052,-0.437c0,-0.352 0.081,-0.63 0.243,-0.836c0.163,-0.206 0.378,-0.309 0.646,-0.309c0.174,0 0.366,0.056 0.578,0.168l-0.072,0.512Z" style="fill:#373535;fill-rule:nonzero;"/><path d="M68.006,23.631l-1.476,0c0,0.461 0.071,0.841 0.212,1.14c0.141,0.3 0.314,0.45 0.519,0.45c0.195,0 0.397,-0.067 0.605,-0.2l0.055,0.489c-0.19,0.161 -0.411,0.242 -0.664,0.242c-0.32,0 -0.577,-0.194 -0.772,-0.582c-0.196,-0.388 -0.293,-0.912 -0.293,-1.571c0,-0.645 0.087,-1.16 0.263,-1.545c0.175,-0.384 0.402,-0.576 0.68,-0.576c0.248,0 0.455,0.179 0.621,0.535c0.167,0.357 0.25,0.833 0.25,1.426l0,0.192ZM67.655,23.135c0,-0.318 -0.052,-0.586 -0.157,-0.803c-0.104,-0.218 -0.221,-0.326 -0.351,-0.326c-0.166,0 -0.304,0.104 -0.414,0.312c-0.109,0.208 -0.17,0.481 -0.182,0.817l1.104,0Z" style="fill:#373535;fill-rule:nonzero;"/><path d="M72.791,22.158c-0.18,-0.112 -0.35,-0.168 -0.51,-0.168c-0.175,0 -0.313,0.055 -0.415,0.166c-0.102,0.111 -0.153,0.259 -0.153,0.443c0,0.118 0.024,0.22 0.071,0.307c0.046,0.087 0.14,0.169 0.28,0.244l0.308,0.168c0.142,0.076 0.257,0.166 0.347,0.272c0.089,0.105 0.156,0.233 0.201,0.382c0.045,0.15 0.067,0.324 0.067,0.522c0,0.388 -0.086,0.695 -0.258,0.92c-0.172,0.225 -0.391,0.338 -0.656,0.338c-0.265,0 -0.483,-0.076 -0.655,-0.227l0.062,-0.527c0.18,0.161 0.374,0.242 0.58,0.242c0.179,0 0.325,-0.063 0.437,-0.189c0.112,-0.127 0.168,-0.294 0.168,-0.502c0,-0.141 -0.028,-0.267 -0.084,-0.377c-0.055,-0.111 -0.186,-0.226 -0.393,-0.346c-0.166,-0.096 -0.289,-0.169 -0.367,-0.217c-0.079,-0.048 -0.152,-0.119 -0.219,-0.213c-0.067,-0.093 -0.119,-0.205 -0.154,-0.336c-0.035,-0.13 -0.052,-0.276 -0.052,-0.437c0,-0.352 0.081,-0.63 0.243,-0.836c0.163,-0.206 0.378,-0.309 0.646,-0.309c0.174,0 0.366,0.056 0.578,0.168l-0.072,0.512Z" style="fill:#373535;fill-rule:nonzero;"/><path d="M75.574,25.463c-0.216,0.187 -0.429,0.281 -0.638,0.281c-0.384,0 -0.576,-0.384 -0.576,-1.152l0,-2.489l-0.413,0l0,-0.527l0.413,0l0,-1.113l0.314,0l0,1.113l0.73,0l0,0.527l-0.73,0l0,2.328c0,0.248 0.029,0.44 0.086,0.577c0.058,0.136 0.137,0.205 0.236,0.205c0.176,0 0.35,-0.075 0.522,-0.223l0.056,0.473Z" style="fill:#373535;fill-rule:nonzero;"/><path d="M78.144,25.646l-0.32,0c-0.026,-0.164 -0.04,-0.383 -0.04,-0.656c-0.183,0.508 -0.432,0.762 -0.747,0.762c-0.159,0 -0.3,-0.108 -0.422,-0.323c-0.122,-0.214 -0.183,-0.491 -0.183,-0.83c0,-0.2 0.022,-0.377 0.064,-0.531c0.043,-0.153 0.106,-0.283 0.188,-0.389c0.083,-0.105 0.183,-0.188 0.302,-0.25c0.118,-0.061 0.258,-0.103 0.421,-0.126l0.361,-0.055l0,-0.195c0,-0.698 -0.172,-1.047 -0.516,-1.047c-0.081,0 -0.184,0.033 -0.309,0.099c-0.124,0.067 -0.231,0.145 -0.321,0.237l-0.084,-0.438c0.293,-0.284 0.565,-0.426 0.817,-0.426c0.49,0 0.735,0.491 0.735,1.473l0,1.75c0,0.354 0.018,0.669 0.054,0.945ZM77.768,24.439l0,-0.738c-0.29,0.049 -0.49,0.096 -0.598,0.139c-0.108,0.043 -0.201,0.123 -0.28,0.24c-0.08,0.117 -0.119,0.276 -0.119,0.476c0,0.183 0.034,0.33 0.101,0.442c0.067,0.112 0.153,0.168 0.258,0.168c0.114,0 0.228,-0.065 0.341,-0.194c0.113,-0.128 0.212,-0.306 0.297,-0.533Z" style="fill:#373535;fill-rule:nonzero;"/><path d="M80.66,21.685l-0.13,0.586c-0.142,-0.117 -0.264,-0.175 -0.367,-0.175c-0.095,0 -0.188,0.051 -0.279,0.154c-0.091,0.103 -0.175,0.25 -0.251,0.441c-0.076,0.192 -0.115,0.299 -0.115,0.322l0,2.633l-0.32,0l0,-4.07l0.32,0l0,0.824c0.172,-0.614 0.395,-0.922 0.669,-0.922c0.163,0 0.32,0.069 0.473,0.207Z" style="fill:#373535;fill-rule:nonzero;"/><path d="M83.185,25.463c-0.216,0.187 -0.429,0.281 -0.638,0.281c-0.384,0 -0.576,-0.384 -0.576,-1.152l0,-2.489l-0.413,0l0,-0.527l0.413,0l0,-1.113l0.314,0l0,1.113l0.73,0l0,0.527l-0.73,0l0,2.328c0,0.248 0.028,0.44 0.086,0.577c0.058,0.136 0.137,0.205 0.236,0.205c0.176,0 0.35,-0.075 0.522,-0.223l0.056,0.473Z" style="fill:#373535;fill-rule:nonzero;"/><path d="M85.697,25.646l-0.322,0l0,-0.601c-0.231,0.466 -0.475,0.699 -0.731,0.699c-0.403,0 -0.605,-0.462 -0.605,-1.387l0,-2.781l0.322,0l0,2.605c0,0.347 0.029,0.605 0.087,0.776c0.058,0.17 0.155,0.256 0.293,0.256c0.197,0 0.408,-0.232 0.634,-0.696l0,-2.941l0.322,0l0,4.07Z" style="fill:#373535;fill-rule:nonzero;"/><path d="M86.902,22.103c0.072,-0.187 0.169,-0.338 0.29,-0.453c0.122,-0.114 0.251,-0.172 0.385,-0.172c0.248,0 0.442,0.194 0.584,0.58c0.141,0.387 0.211,0.89 0.211,1.51c0,0.625 -0.074,1.145 -0.222,1.561c-0.148,0.415 -0.347,0.623 -0.597,0.623c-0.134,0 -0.259,-0.063 -0.375,-0.19c-0.116,-0.126 -0.208,-0.293 -0.276,-0.502l0,2.196l-0.322,0l0,-5.68l0.322,0l0,0.527ZM86.902,22.709l0,1.691c0.061,0.229 0.143,0.421 0.246,0.574c0.103,0.154 0.21,0.231 0.32,0.231c0.173,0 0.311,-0.154 0.414,-0.461c0.102,-0.307 0.154,-0.689 0.154,-1.145c0,-0.468 -0.049,-0.851 -0.147,-1.148c-0.098,-0.297 -0.234,-0.445 -0.409,-0.445c-0.227,0 -0.419,0.234 -0.578,0.703Z" style="fill:#373535;fill-rule:nonzero;"/><rect x="91.59" y="23.15" width="1.693" height="0.594" style="fill:#373535;fill-rule:nonzero;"/><path d="M98.623,20.654l-0.898,0l0,4.992l-0.336,0l0,-4.992l-0.902,0l0,-0.519l2.136,0l0,0.519Z" style="fill:#373535;fill-rule:nonzero;"/><path d="M100.923,25.646l-0.322,0l0,-2.609c0,-0.362 -0.031,-0.624 -0.092,-0.787c-0.061,-0.163 -0.157,-0.244 -0.288,-0.244c-0.197,0 -0.408,0.231 -0.634,0.695l0,2.945l-0.322,0l0,-5.511l0.322,0l0,2.039c0.232,-0.464 0.475,-0.696 0.731,-0.696c0.403,0 0.605,0.461 0.605,1.383l0,2.785Z" style="fill:#373535;fill-rule:nonzero;"/><path d="M103.524,23.631l-1.476,0c0,0.461 0.07,0.841 0.212,1.14c0.141,0.3 0.314,0.45 0.519,0.45c0.195,0 0.397,-0.067 0.605,-0.2l0.055,0.489c-0.19,0.161 -0.411,0.242 -0.664,0.242c-0.32,0 -0.577,-0.194 -0.772,-0.582c-0.196,-0.388 -0.294,-0.912 -0.294,-1.571c0,-0.645 0.088,-1.16 0.264,-1.545c0.175,-0.384 0.402,-0.576 0.68,-0.576c0.247,0 0.455,0.179 0.621,0.535c0.167,0.357 0.25,0.833 0.25,1.426l0,0.192ZM103.173,23.135c0,-0.318 -0.052,-0.586 -0.157,-0.803c-0.105,-0.218 -0.221,-0.326 -0.351,-0.326c-0.166,0 -0.304,0.104 -0.414,0.312c-0.109,0.208 -0.17,0.481 -0.182,0.817l1.104,0Z" style="fill:#373535;fill-rule:nonzero;"/><path d="M108.309,22.158c-0.18,-0.112 -0.35,-0.168 -0.51,-0.168c-0.175,0 -0.313,0.055 -0.415,0.166c-0.102,0.111 -0.153,0.259 -0.153,0.443c0,0.118 0.024,0.22 0.07,0.307c0.047,0.087 0.141,0.169 0.281,0.244l0.308,0.168c0.142,0.076 0.257,0.166 0.347,0.272c0.089,0.105 0.156,0.233 0.201,0.382c0.045,0.15 0.067,0.324 0.067,0.522c0,0.388 -0.086,0.695 -0.258,0.92c-0.172,0.225 -0.391,0.338 -0.657,0.338c-0.264,0 -0.482,-0.076 -0.654,-0.227l0.062,-0.527c0.18,0.161 0.374,0.242 0.58,0.242c0.179,0 0.325,-0.063 0.437,-0.189c0.112,-0.127 0.168,-0.294 0.168,-0.502c0,-0.141 -0.028,-0.267 -0.084,-0.377c-0.055,-0.111 -0.186,-0.226 -0.393,-0.346c-0.166,-0.096 -0.289,-0.169 -0.367,-0.217c-0.079,-0.048 -0.152,-0.119 -0.219,-0.213c-0.068,-0.093 -0.119,-0.205 -0.154,-0.336c-0.035,-0.13 -0.053,-0.276 -0.053,-0.437c0,-0.352 0.082,-0.63 0.244,-0.836c0.162,-0.206 0.378,-0.309 0.646,-0.309c0.174,0 0.366,0.056 0.578,0.168l-0.072,0.512Z" style="fill:#373535;fill-rule:nonzero;"/><path d="M111.135,23.631l-1.476,0c0,0.461 0.07,0.841 0.211,1.14c0.142,0.3 0.315,0.45 0.52,0.45c0.195,0 0.397,-0.067 0.604,-0.2l0.056,0.489c-0.19,0.161 -0.411,0.242 -0.664,0.242c-0.32,0 -0.577,-0.194 -0.773,-0.582c-0.195,-0.388 -0.293,-0.912 -0.293,-1.571c0,-0.645 0.088,-1.16 0.264,-1.545c0.175,-0.384 0.402,-0.576 0.68,-0.576c0.247,0 0.455,0.179 0.621,0.535c0.167,0.357 0.25,0.833 0.25,1.426l0,0.192ZM110.784,23.135c0,-0.318 -0.052,-0.586 -0.157,-0.803c-0.105,-0.218 -0.222,-0.326 -0.351,-0.326c-0.166,0 -0.304,0.104 -0.414,0.312c-0.109,0.208 -0.17,0.481 -0.182,0.817l1.104,0Z" style="fill:#373535;fill-rule:nonzero;"/><path d="M113.672,23.631l-1.476,0c0,0.461 0.07,0.841 0.211,1.14c0.142,0.3 0.315,0.45 0.52,0.45c0.195,0 0.397,-0.067 0.604,-0.2l0.056,0.489c-0.19,0.161 -0.411,0.242 -0.664,0.242c-0.32,0 -0.577,-0.194 -0.773,-0.582c-0.195,-0.388 -0.293,-0.912 -0.293,-1.571c0,-0.645 0.088,-1.16 0.264,-1.545c0.175,-0.384 0.402,-0.576 0.68,-0.576c0.247,0 0.455,0.179 0.621,0.535c0.167,0.357 0.25,0.833 0.25,1.426l0,0.192ZM113.321,23.135c0,-0.318 -0.052,-0.586 -0.157,-0.803c-0.105,-0.218 -0.222,-0.326 -0.351,-0.326c-0.166,0 -0.304,0.104 -0.414,0.312c-0.109,0.208 -0.17,0.481 -0.182,0.817l1.104,0Z" style="fill:#373535;fill-rule:nonzero;"/><path d="M116.137,25.646l-0.322,0l0,-0.586c-0.067,0.201 -0.161,0.366 -0.284,0.496c-0.123,0.131 -0.253,0.196 -0.389,0.196c-0.247,0 -0.441,-0.208 -0.585,-0.623c-0.143,-0.416 -0.214,-0.942 -0.214,-1.58c0,-0.597 0.074,-1.091 0.224,-1.483c0.149,-0.392 0.347,-0.588 0.593,-0.588c0.271,0 0.489,0.209 0.655,0.625l0,-1.968l0.322,0l0,5.511ZM115.815,24.4l0,-1.691c-0.155,-0.469 -0.34,-0.703 -0.558,-0.703c-0.177,0 -0.318,0.149 -0.421,0.447c-0.103,0.298 -0.155,0.675 -0.155,1.131c0,0.469 0.049,0.856 0.146,1.162c0.097,0.306 0.23,0.459 0.399,0.459c0.081,0 0.163,-0.042 0.246,-0.125c0.082,-0.083 0.16,-0.208 0.233,-0.375c0.073,-0.167 0.11,-0.268 0.11,-0.305Z" style="fill:#373535;fill-rule:nonzero;"/><path d="M121.239,20.197l-0.084,0.496c-0.153,-0.083 -0.29,-0.125 -0.411,-0.125c-0.116,0 -0.195,0.062 -0.238,0.186c-0.044,0.123 -0.065,0.373 -0.065,0.748l0,0.074l0.722,0l0,0.527l-0.722,0l0,3.543l-0.322,0l0,-3.543l-0.541,0l0,-0.527l0.541,0l0,-0.137c0,-0.518 0.046,-0.881 0.14,-1.09c0.094,-0.208 0.255,-0.312 0.485,-0.312c0.149,0 0.314,0.053 0.495,0.16Z" style="fill:#373535;fill-rule:nonzero;"/><path d="M122.922,21.478c0.296,0 0.531,0.196 0.706,0.586c0.175,0.391 0.262,0.905 0.262,1.543c0,0.643 -0.087,1.162 -0.262,1.555c-0.175,0.393 -0.41,0.59 -0.706,0.59c-0.297,0 -0.533,-0.196 -0.707,-0.588c-0.174,-0.392 -0.261,-0.911 -0.261,-1.557c0,-0.64 0.087,-1.155 0.262,-1.545c0.175,-0.389 0.41,-0.584 0.706,-0.584ZM122.922,25.221c0.195,0 0.349,-0.157 0.462,-0.469c0.113,-0.313 0.17,-0.692 0.17,-1.137c0,-0.469 -0.056,-0.854 -0.168,-1.156c-0.111,-0.302 -0.266,-0.453 -0.464,-0.453c-0.2,0 -0.355,0.149 -0.465,0.447c-0.11,0.298 -0.165,0.685 -0.165,1.162c0,0.453 0.056,0.834 0.167,1.143c0.112,0.308 0.266,0.463 0.463,0.463Z" style="fill:#373535;fill-rule:nonzero;"/><path d="M126.326,21.685l-0.13,0.586c-0.142,-0.117 -0.264,-0.175 -0.368,-0.175c-0.095,0 -0.188,0.051 -0.278,0.154c-0.091,0.103 -0.175,0.25 -0.251,0.441c-0.077,0.192 -0.115,0.299 -0.115,0.322l0,2.633l-0.32,0l0,-4.07l0.32,0l0,0.824c0.172,-0.614 0.395,-0.922 0.669,-0.922c0.163,0 0.32,0.069 0.473,0.207Z" style="fill:#373535;fill-rule:nonzero;"/><path d="M131.464,21.576l-0.816,4.07c-0.118,0.599 -0.235,1.017 -0.352,1.254c-0.116,0.237 -0.248,0.356 -0.397,0.356c-0.132,0 -0.263,-0.046 -0.392,-0.137l0.054,-0.488c0.104,0.062 0.198,0.093 0.28,0.093c0.116,0 0.211,-0.084 0.285,-0.253c0.074,-0.17 0.149,-0.447 0.225,-0.833l-0.807,-4.062l0.351,0l0.609,3.246l0.609,-3.246l0.351,0Z" style="fill:#373535;fill-rule:nonzero;"/><path d="M133.07,21.478c0.296,0 0.531,0.196 0.706,0.586c0.175,0.391 0.262,0.905 0.262,1.543c0,0.643 -0.087,1.162 -0.262,1.555c-0.175,0.393 -0.41,0.59 -0.706,0.59c-0.297,0 -0.533,-0.196 -0.707,-0.588c-0.174,-0.392 -0.261,-0.911 -0.261,-1.557c0,-0.64 0.087,-1.155 0.262,-1.545c0.175,-0.389 0.41,-0.584 0.706,-0.584ZM133.07,25.221c0.195,0 0.349,-0.157 0.462,-0.469c0.113,-0.313 0.169,-0.692 0.169,-1.137c0,-0.469 -0.055,-0.854 -0.167,-1.156c-0.111,-0.302 -0.266,-0.453 -0.464,-0.453c-0.2,0 -0.355,0.149 -0.465,0.447c-0.11,0.298 -0.165,0.685 -0.165,1.162c0,0.453 0.056,0.834 0.167,1.143c0.112,0.308 0.266,0.463 0.463,0.463Z" style="fill:#373535;fill-rule:nonzero;"/><path d="M136.437,25.646l-0.322,0l0,-0.601c-0.232,0.466 -0.475,0.699 -0.731,0.699c-0.403,0 -0.605,-0.462 -0.605,-1.387l0,-2.781l0.322,0l0,2.605c0,0.347 0.029,0.605 0.087,0.776c0.058,0.17 0.155,0.256 0.293,0.256c0.197,0 0.408,-0.232 0.634,-0.696l0,-2.941l0.322,0l0,4.07Z" style="fill:#373535;fill-rule:nonzero;"/><path d="M139.011,21.685l-0.13,0.586c-0.142,-0.117 -0.264,-0.175 -0.368,-0.175c-0.095,0 -0.188,0.051 -0.278,0.154c-0.091,0.103 -0.175,0.25 -0.251,0.441c-0.077,0.192 -0.115,0.299 -0.115,0.322l0,2.633l-0.32,0l0,-4.07l0.32,0l0,0.824c0.172,-0.614 0.395,-0.922 0.669,-0.922c0.162,0 0.32,0.069 0.473,0.207Z" style="fill:#373535;fill-rule:nonzero;"/><path d="M144.116,23.631l-1.476,0c0,0.461 0.07,0.841 0.211,1.14c0.141,0.3 0.314,0.45 0.52,0.45c0.195,0 0.397,-0.067 0.604,-0.2l0.056,0.489c-0.19,0.161 -0.411,0.242 -0.665,0.242c-0.319,0 -0.576,-0.194 -0.772,-0.582c-0.195,-0.388 -0.293,-0.912 -0.293,-1.571c0,-0.645 0.088,-1.16 0.263,-1.545c0.176,-0.384 0.403,-0.576 0.681,-0.576c0.247,0 0.454,0.179 0.621,0.535c0.166,0.357 0.25,0.833 0.25,1.426l0,0.192ZM143.765,23.135c0,-0.318 -0.052,-0.586 -0.157,-0.803c-0.105,-0.218 -0.222,-0.326 -0.351,-0.326c-0.167,0 -0.304,0.104 -0.414,0.312c-0.109,0.208 -0.17,0.481 -0.183,0.817l1.105,0Z" style="fill:#373535;fill-rule:nonzero;"/><path d="M146.665,25.646l-0.363,0l-0.576,-1.593l-0.597,1.593l-0.342,0l0.765,-2.039l-0.765,-2.031l0.369,0l0.578,1.582l0.588,-1.582l0.343,0l-0.762,2.008l0.762,2.062Z" style="fill:#373535;fill-rule:nonzero;"/><path d="M147.79,22.103c0.072,-0.187 0.168,-0.338 0.29,-0.453c0.122,-0.114 0.25,-0.172 0.385,-0.172c0.248,0 0.442,0.194 0.583,0.58c0.141,0.387 0.212,0.89 0.212,1.51c0,0.625 -0.074,1.145 -0.222,1.561c-0.148,0.415 -0.347,0.623 -0.598,0.623c-0.133,0 -0.258,-0.063 -0.374,-0.19c-0.117,-0.126 -0.208,-0.293 -0.276,-0.502l0,2.196l-0.322,0l0,-5.68l0.322,0l0,0.527ZM147.79,22.709l0,1.691c0.061,0.229 0.143,0.421 0.246,0.574c0.103,0.154 0.21,0.231 0.32,0.231c0.173,0 0.311,-0.154 0.414,-0.461c0.102,-0.307 0.153,-0.689 0.153,-1.145c0,-0.468 -0.048,-0.851 -0.146,-1.148c-0.098,-0.297 -0.234,-0.445 -0.409,-0.445c-0.227,0 -0.42,0.234 -0.578,0.703Z" style="fill:#373535;fill-rule:nonzero;"/><path d="M151.727,23.631l-1.476,0c0,0.461 0.07,0.841 0.211,1.14c0.141,0.3 0.314,0.45 0.52,0.45c0.195,0 0.397,-0.067 0.604,-0.2l0.056,0.489c-0.19,0.161 -0.411,0.242 -0.665,0.242c-0.319,0 -0.576,-0.194 -0.772,-0.582c-0.195,-0.388 -0.293,-0.912 -0.293,-1.571c0,-0.645 0.088,-1.16 0.263,-1.545c0.176,-0.384 0.403,-0.576 0.681,-0.576c0.247,0 0.454,0.179 0.621,0.535c0.166,0.357 0.25,0.833 0.25,1.426l0,0.192ZM151.376,23.135c0,-0.318 -0.053,-0.586 -0.157,-0.803c-0.105,-0.218 -0.222,-0.326 -0.351,-0.326c-0.167,0 -0.305,0.104 -0.414,0.312c-0.109,0.208 -0.17,0.481 -0.183,0.817l1.105,0Z" style="fill:#373535;fill-rule:nonzero;"/><path d="M154.233,21.685l-0.13,0.586c-0.142,-0.117 -0.265,-0.175 -0.368,-0.175c-0.095,0 -0.188,0.051 -0.278,0.154c-0.091,0.103 -0.175,0.25 -0.251,0.441c-0.077,0.192 -0.115,0.299 -0.115,0.322l0,2.633l-0.32,0l0,-4.07l0.32,0l0,0.824c0.172,-0.614 0.395,-0.922 0.669,-0.922c0.162,0 0.32,0.069 0.473,0.207Z" style="fill:#373535;fill-rule:nonzero;"/><path d="M156.043,20.037c0.061,0 0.112,0.041 0.155,0.123c0.043,0.082 0.064,0.18 0.064,0.295c0,0.12 -0.021,0.22 -0.063,0.301c-0.042,0.08 -0.094,0.121 -0.156,0.121c-0.056,0 -0.106,-0.043 -0.15,-0.127c-0.043,-0.085 -0.065,-0.183 -0.065,-0.295c0,-0.112 0.022,-0.21 0.065,-0.293c0.044,-0.083 0.094,-0.125 0.15,-0.125ZM156.2,25.646l-0.322,0l0,-3.543l-0.634,0l0,-0.527l0.956,0l0,4.07Z" style="fill:#373535;fill-rule:nonzero;"/><path d="M159.338,23.631l-1.476,0c0,0.461 0.07,0.841 0.211,1.14c0.141,0.3 0.314,0.45 0.519,0.45c0.196,0 0.398,-0.067 0.605,-0.2l0.056,0.489c-0.19,0.161 -0.411,0.242 -0.665,0.242c-0.319,0 -0.576,-0.194 -0.772,-0.582c-0.195,-0.388 -0.293,-0.912 -0.293,-1.571c0,-0.645 0.088,-1.16 0.263,-1.545c0.176,-0.384 0.403,-0.576 0.681,-0.576c0.247,0 0.454,0.179 0.621,0.535c0.166,0.357 0.25,0.833 0.25,1.426l0,0.192ZM158.987,23.135c0,-0.318 -0.053,-0.586 -0.157,-0.803c-0.105,-0.218 -0.222,-0.326 -0.351,-0.326c-0.167,0 -0.305,0.104 -0.414,0.312c-0.109,0.208 -0.17,0.481 -0.183,0.817l1.105,0Z" style="fill:#373535;fill-rule:nonzero;"/><path d="M161.811,25.646l-0.322,0l0,-2.609c0,-0.362 -0.031,-0.624 -0.092,-0.787c-0.061,-0.163 -0.157,-0.244 -0.288,-0.244c-0.197,0 -0.408,0.231 -0.634,0.695l0,2.945l-0.322,0l0,-4.07l0.322,0l0,0.598c0.231,-0.464 0.475,-0.696 0.731,-0.696c0.403,0 0.605,0.461 0.605,1.383l0,2.785Z" style="fill:#373535;fill-rule:nonzero;"/><path d="M164.339,25.51c-0.187,0.161 -0.392,0.242 -0.617,0.242c-0.338,0 -0.608,-0.195 -0.81,-0.584c-0.202,-0.39 -0.302,-0.907 -0.302,-1.553c0,-0.646 0.101,-1.163 0.304,-1.553c0.203,-0.389 0.47,-0.584 0.8,-0.584c0.216,0 0.422,0.072 0.617,0.215l-0.084,0.504c-0.196,-0.128 -0.372,-0.191 -0.529,-0.191c-0.237,0 -0.424,0.144 -0.562,0.433c-0.139,0.289 -0.208,0.681 -0.208,1.176c0,0.453 0.072,0.834 0.215,1.143c0.143,0.308 0.329,0.463 0.559,0.463c0.182,0 0.369,-0.067 0.562,-0.2l0.055,0.489Z" style="fill:#373535;fill-rule:nonzero;"/><path d="M166.949,23.631l-1.476,0c0,0.461 0.07,0.841 0.211,1.14c0.141,0.3 0.314,0.45 0.519,0.45c0.196,0 0.397,-0.067 0.605,-0.2l0.056,0.489c-0.19,0.161 -0.411,0.242 -0.665,0.242c-0.319,0 -0.576,-0.194 -0.772,-0.582c-0.195,-0.388 -0.293,-0.912 -0.293,-1.571c0,-0.645 0.088,-1.16 0.263,-1.545c0.176,-0.384 0.403,-0.576 0.681,-0.576c0.247,0 0.454,0.179 0.621,0.535c0.166,0.357 0.25,0.833 0.25,1.426l0,0.192ZM166.598,23.135c0,-0.318 -0.053,-0.586 -0.157,-0.803c-0.105,-0.218 -0.222,-0.326 -0.351,-0.326c-0.167,0 -0.305,0.104 -0.414,0.312c-0.109,0.208 -0.17,0.481 -0.183,0.817l1.105,0Z" style="fill:#373535;fill-rule:nonzero;"/><path d="M169.413,25.646l-0.322,0l0,-0.586c-0.066,0.201 -0.16,0.366 -0.283,0.496c-0.124,0.131 -0.253,0.196 -0.39,0.196c-0.246,0 -0.441,-0.208 -0.584,-0.623c-0.143,-0.416 -0.214,-0.942 -0.214,-1.58c0,-0.597 0.074,-1.091 0.224,-1.483c0.149,-0.392 0.347,-0.588 0.593,-0.588c0.271,0 0.489,0.209 0.654,0.625l0,-1.968l0.322,0l0,5.511ZM169.091,24.4l0,-1.691c-0.154,-0.469 -0.34,-0.703 -0.557,-0.703c-0.178,0 -0.318,0.149 -0.421,0.447c-0.103,0.298 -0.155,0.675 -0.155,1.131c0,0.469 0.049,0.856 0.146,1.162c0.097,0.306 0.23,0.459 0.399,0.459c0.081,0 0.163,-0.042 0.246,-0.125c0.082,-0.083 0.16,-0.208 0.233,-0.375c0.073,-0.167 0.109,-0.268 0.109,-0.305Z" style="fill:#373535;fill-rule:nonzero;"/><path d="M174.818,25.646l-0.424,0l-0.854,-2.504l-0.376,0l0,2.504l-0.338,0l0,-5.511l0.823,0c0.277,0 0.495,0.127 0.656,0.38c0.16,0.254 0.24,0.608 0.24,1.061c0,0.336 -0.058,0.635 -0.175,0.896c-0.117,0.262 -0.278,0.44 -0.483,0.534l0.931,2.64ZM173.164,22.584l0.427,0c0.179,0 0.325,-0.092 0.436,-0.276c0.112,-0.183 0.167,-0.414 0.167,-0.693c0,-0.615 -0.198,-0.922 -0.594,-0.922l-0.436,0l0,1.891Z" style="fill:#373535;fill-rule:nonzero;"/><path d="M177.464,25.615c-0.06,0.047 -0.136,0.07 -0.225,0.07c-0.073,0 -0.145,-0.048 -0.217,-0.146c-0.071,-0.098 -0.163,-0.289 -0.276,-0.572c-0.215,0.523 -0.474,0.785 -0.779,0.785c-0.243,0 -0.449,-0.147 -0.618,-0.44c-0.168,-0.293 -0.253,-0.657 -0.253,-1.091c0,-0.279 0.044,-0.543 0.132,-0.792c0.089,-0.248 0.253,-0.53 0.494,-0.845c-0.229,-0.508 -0.343,-0.951 -0.343,-1.328c0,-0.365 0.064,-0.66 0.191,-0.887c0.127,-0.227 0.288,-0.34 0.482,-0.34c0.18,0 0.329,0.097 0.446,0.291c0.117,0.194 0.175,0.463 0.175,0.807c0,0.247 -0.039,0.484 -0.119,0.711c-0.08,0.226 -0.229,0.491 -0.448,0.793l0.609,1.422c0.093,-0.454 0.163,-0.769 0.209,-0.946c0.046,-0.177 0.111,-0.33 0.195,-0.459c0.084,-0.129 0.192,-0.193 0.324,-0.193l0.017,0l0,0.535l-0.017,0c-0.084,0 -0.164,0.085 -0.241,0.254c-0.077,0.169 -0.179,0.583 -0.306,1.242c0.104,0.235 0.184,0.402 0.242,0.504c0.058,0.102 0.122,0.152 0.194,0.152c0.033,0 0.077,-0.007 0.132,-0.023l0,0.496ZM175.955,22.263c0.162,-0.213 0.276,-0.402 0.34,-0.566c0.064,-0.164 0.096,-0.338 0.096,-0.523c0,-0.203 -0.033,-0.357 -0.098,-0.461c-0.066,-0.104 -0.145,-0.157 -0.237,-0.157c-0.107,0 -0.197,0.062 -0.269,0.186c-0.072,0.124 -0.109,0.295 -0.109,0.514c0,0.281 0.093,0.617 0.277,1.007ZM176.572,24.568l-0.693,-1.617c-0.163,0.224 -0.277,0.43 -0.344,0.619c-0.067,0.189 -0.1,0.398 -0.1,0.627c0,0.287 0.053,0.527 0.16,0.723c0.107,0.195 0.233,0.293 0.381,0.293c0.23,0 0.428,-0.215 0.596,-0.645Z" style="fill:#373535;fill-rule:nonzero;"/><path d="M177.9,20.135l0.573,0c0.382,0 0.687,0.245 0.917,0.736c0.23,0.491 0.345,1.165 0.345,2.021c0,0.875 -0.117,1.553 -0.35,2.034c-0.233,0.48 -0.532,0.72 -0.897,0.72l-0.588,0l0,-5.511ZM178.238,25.088l0.24,0c0.276,0 0.495,-0.194 0.656,-0.582c0.161,-0.388 0.242,-0.926 0.242,-1.614c0,-0.682 -0.081,-1.219 -0.243,-1.611c-0.162,-0.392 -0.38,-0.588 -0.655,-0.588l-0.24,0l0,4.395Z" style="fill:#373535;fill-rule:nonzero;"/><path d="M184.635,25.646l-0.322,0l0,-0.586c-0.066,0.201 -0.16,0.366 -0.284,0.496c-0.123,0.131 -0.252,0.196 -0.389,0.196c-0.246,0 -0.441,-0.208 -0.584,-0.623c-0.143,-0.416 -0.215,-0.942 -0.215,-1.58c0,-0.597 0.075,-1.091 0.224,-1.483c0.15,-0.392 0.348,-0.588 0.594,-0.588c0.271,0 0.489,0.209 0.654,0.625l0,-1.968l0.322,0l0,5.511ZM184.313,24.4l0,-1.691c-0.154,-0.469 -0.34,-0.703 -0.557,-0.703c-0.178,0 -0.318,0.149 -0.421,0.447c-0.103,0.298 -0.155,0.675 -0.155,1.131c0,0.469 0.049,0.856 0.146,1.162c0.097,0.306 0.23,0.459 0.399,0.459c0.081,0 0.163,-0.042 0.246,-0.125c0.082,-0.083 0.16,-0.208 0.233,-0.375c0.073,-0.167 0.109,-0.268 0.109,-0.305Z" style="fill:#373535;fill-rule:nonzero;"/><path d="M187.245,23.631l-1.476,0c0,0.461 0.07,0.841 0.211,1.14c0.141,0.3 0.314,0.45 0.519,0.45c0.196,0 0.397,-0.067 0.605,-0.2l0.056,0.489c-0.19,0.161 -0.412,0.242 -0.665,0.242c-0.319,0 -0.576,-0.194 -0.772,-0.582c-0.195,-0.388 -0.293,-0.912 -0.293,-1.571c0,-0.645 0.088,-1.16 0.263,-1.545c0.176,-0.384 0.402,-0.576 0.68,-0.576c0.248,0 0.455,0.179 0.622,0.535c0.166,0.357 0.25,0.833 0.25,1.426l0,0.192ZM186.894,23.135c0,-0.318 -0.053,-0.586 -0.157,-0.803c-0.105,-0.218 -0.222,-0.326 -0.351,-0.326c-0.167,0 -0.305,0.104 -0.414,0.312c-0.109,0.208 -0.17,0.481 -0.183,0.817l1.105,0Z" style="fill:#373535;fill-rule:nonzero;"/><path d="M188.382,22.103c0.072,-0.187 0.168,-0.338 0.29,-0.453c0.122,-0.114 0.25,-0.172 0.385,-0.172c0.248,0 0.442,0.194 0.583,0.58c0.141,0.387 0.212,0.89 0.212,1.51c0,0.625 -0.074,1.145 -0.222,1.561c-0.148,0.415 -0.347,0.623 -0.598,0.623c-0.133,0 -0.258,-0.063 -0.374,-0.19c-0.117,-0.126 -0.209,-0.293 -0.276,-0.502l0,2.196l-0.322,0l0,-5.68l0.322,0l0,0.527ZM188.382,22.709l0,1.691c0.061,0.229 0.142,0.421 0.246,0.574c0.103,0.154 0.21,0.231 0.32,0.231c0.173,0 0.311,-0.154 0.413,-0.461c0.103,-0.307 0.154,-0.689 0.154,-1.145c0,-0.468 -0.049,-0.851 -0.146,-1.148c-0.098,-0.297 -0.234,-0.445 -0.409,-0.445c-0.227,0 -0.42,0.234 -0.578,0.703Z" style="fill:#373535;fill-rule:nonzero;"/><path d="M192.308,25.646l-0.32,0c-0.026,-0.164 -0.039,-0.383 -0.039,-0.656c-0.183,0.508 -0.432,0.762 -0.747,0.762c-0.16,0 -0.301,-0.108 -0.422,-0.323c-0.122,-0.214 -0.183,-0.491 -0.183,-0.83c0,-0.2 0.021,-0.377 0.064,-0.531c0.043,-0.153 0.105,-0.283 0.188,-0.389c0.082,-0.105 0.183,-0.188 0.301,-0.25c0.119,-0.061 0.259,-0.103 0.421,-0.126l0.362,-0.055l0,-0.195c0,-0.698 -0.172,-1.047 -0.517,-1.047c-0.081,0 -0.184,0.033 -0.308,0.099c-0.125,0.067 -0.232,0.145 -0.321,0.237l-0.085,-0.438c0.293,-0.284 0.566,-0.426 0.818,-0.426c0.49,0 0.735,0.491 0.735,1.473l0,1.75c0,0.354 0.017,0.669 0.053,0.945ZM191.933,24.439l0,-0.738c-0.291,0.049 -0.49,0.096 -0.598,0.139c-0.108,0.043 -0.202,0.123 -0.281,0.24c-0.079,0.117 -0.119,0.276 -0.119,0.476c0,0.183 0.034,0.33 0.102,0.442c0.067,0.112 0.153,0.168 0.258,0.168c0.114,0 0.227,-0.065 0.34,-0.194c0.113,-0.128 0.212,-0.306 0.298,-0.533Z" style="fill:#373535;fill-rule:nonzero;"/><path d="M194.825,21.685l-0.13,0.586c-0.142,-0.117 -0.265,-0.175 -0.368,-0.175c-0.095,0 -0.188,0.051 -0.279,0.154c-0.09,0.103 -0.174,0.25 -0.25,0.441c-0.077,0.192 -0.115,0.299 -0.115,0.322l0,2.633l-0.32,0l0,-4.07l0.32,0l0,0.824c0.172,-0.614 0.395,-0.922 0.669,-0.922c0.162,0 0.32,0.069 0.473,0.207Z" style="fill:#373535;fill-rule:nonzero;"/><path d="M197.349,25.463c-0.216,0.187 -0.428,0.281 -0.638,0.281c-0.384,0 -0.576,-0.384 -0.576,-1.152l0,-2.489l-0.412,0l0,-0.527l0.412,0l0,-1.113l0.314,0l0,1.113l0.731,0l0,0.527l-0.731,0l0,2.328c0,0.248 0.029,0.44 0.087,0.577c0.058,0.136 0.136,0.205 0.235,0.205c0.176,0 0.35,-0.075 0.522,-0.223l0.056,0.473Z" style="fill:#373535;fill-rule:nonzero;"/><path d="M200.035,25.646l-0.322,0l0,-2.672c0,-0.645 -0.064,-0.968 -0.19,-0.968c-0.065,0 -0.136,0.111 -0.214,0.334c-0.078,0.222 -0.116,0.345 -0.116,0.369l0,2.937l-0.32,0l0,-2.672c0,-0.645 -0.064,-0.968 -0.192,-0.968c-0.064,0 -0.134,0.111 -0.212,0.334c-0.078,0.222 -0.117,0.345 -0.117,0.369l0,2.937l-0.322,0l0,-4.07l0.31,0l0,0.613c0.061,-0.216 0.132,-0.388 0.216,-0.517c0.083,-0.129 0.166,-0.194 0.249,-0.194c0.086,0 0.164,0.065 0.233,0.194c0.069,0.129 0.116,0.301 0.142,0.517c0.061,-0.216 0.133,-0.388 0.217,-0.517c0.084,-0.129 0.166,-0.194 0.248,-0.194c0.26,0 0.39,0.44 0.39,1.321l0,2.847Z" style="fill:#373535;fill-rule:nonzero;"/><path d="M202.467,23.631l-1.476,0c0,0.461 0.07,0.841 0.211,1.14c0.141,0.3 0.314,0.45 0.519,0.45c0.196,0 0.397,-0.067 0.605,-0.2l0.056,0.489c-0.19,0.161 -0.412,0.242 -0.665,0.242c-0.319,0 -0.576,-0.194 -0.772,-0.582c-0.195,-0.388 -0.293,-0.912 -0.293,-1.571c0,-0.645 0.088,-1.16 0.263,-1.545c0.176,-0.384 0.402,-0.576 0.68,-0.576c0.248,0 0.455,0.179 0.622,0.535c0.166,0.357 0.25,0.833 0.25,1.426l0,0.192ZM202.116,23.135c0,-0.318 -0.053,-0.586 -0.157,-0.803c-0.105,-0.218 -0.222,-0.326 -0.351,-0.326c-0.167,0 -0.305,0.104 -0.414,0.312c-0.11,0.208 -0.17,0.481 -0.183,0.817l1.105,0Z" style="fill:#373535;fill-rule:nonzero;"/><path d="M204.94,25.646l-0.323,0l0,-2.609c0,-0.362 -0.03,-0.624 -0.091,-0.787c-0.062,-0.163 -0.158,-0.244 -0.288,-0.244c-0.197,0 -0.408,0.231 -0.634,0.695l0,2.945l-0.322,0l0,-4.07l0.322,0l0,0.598c0.231,-0.464 0.475,-0.696 0.731,-0.696c0.403,0 0.605,0.461 0.605,1.383l0,2.785Z" style="fill:#373535;fill-rule:nonzero;"/><path d="M207.497,25.463c-0.216,0.187 -0.429,0.281 -0.638,0.281c-0.384,0 -0.576,-0.384 -0.576,-1.152l0,-2.489l-0.412,0l0,-0.527l0.412,0l0,-1.113l0.314,0l0,1.113l0.731,0l0,0.527l-0.731,0l0,2.328c0,0.248 0.029,0.44 0.087,0.577c0.058,0.136 0.136,0.205 0.235,0.205c0.176,0 0.35,-0.075 0.522,-0.223l0.056,0.473Z" style="fill:#373535;fill-rule:nonzero;"/></g><g id="text1"><path d="M41.352,3.883l0,0.6l-5.325,0l0,5.025l5.325,0l0,0.675l-5.325,0l0,5.025l5.325,0l0,0.675l-6,0l0,-12l6,0Z" style="fill:#373435;fill-rule:nonzero;"/><rect id="_x31__3_" x="43.452" y="3.883" width="0.675" height="12" style="fill:#373435;fill-rule:nonzero;"/><path id="_x32__3_" d="M47.802,14.533c0.675,0.6 1.425,0.9 2.25,0.9c0.9,0 1.725,-0.3 2.4,-1.05c0.075,-0.075 0.15,-0.15 0.225,-0.3l0.75,0.225c-0.075,0.15 -0.3,0.375 -0.45,0.525c-0.825,0.825 -1.8,1.2 -2.925,1.2c-1.125,0 -2.1,-0.375 -2.925,-1.2c-0.825,-0.825 -1.2,-1.8 -1.2,-2.925c0,-1.125 0.375,-2.1 1.2,-2.925c0.825,-0.825 1.8,-1.2 2.925,-1.2c0.975,0 1.8,0.3 2.55,0.9c0.075,0.075 0.225,0.225 0.375,0.3c0.075,0.075 0.075,0.075 0.075,0.15l-0.525,0.45l-4.725,4.95ZM52.077,9.208c-0.6,-0.45 -1.275,-0.675 -2.025,-0.675c-0.9,0 -1.725,0.3 -2.4,0.975c-0.675,0.675 -1.05,1.425 -1.05,2.4c0,0.75 0.225,1.425 0.675,2.025l4.8,-4.725Z" style="fill:#373435;fill-rule:nonzero;"/><path id="_x33__3_" d="M62.502,11.233c-0.075,-0.675 -0.45,-1.2 -0.9,-1.725c-0.675,-0.675 -1.425,-0.975 -2.4,-0.975c-0.9,0 -1.725,0.3 -2.4,0.975c-0.675,0.675 -0.975,1.425 -0.975,2.4c0,0.9 0.3,1.725 0.975,2.4c0.675,0.675 1.425,1.05 2.4,1.05c0.9,0 1.725,-0.3 2.4,-1.05c0.45,-0.45 0.825,-1.05 0.9,-1.65l0,-1.425ZM62.502,14.383c-0.075,0.15 -0.3,0.3 -0.45,0.45c-0.825,0.825 -1.8,1.2 -2.925,1.2c-1.125,0 -2.1,-0.375 -2.925,-1.2c-0.825,-0.825 -1.2,-1.8 -1.2,-2.925c0,-1.125 0.375,-2.1 1.2,-2.925c0.825,-0.825 1.8,-1.2 2.925,-1.2c1.125,0 2.1,0.375 2.925,1.2c0.15,0.15 0.3,0.3 0.45,0.45l0,-1.05l0.675,0l0,5.7c0,1.125 -0.375,2.025 -1.2,2.85c-0.825,0.825 -1.8,1.2 -2.925,1.2c-1.125,0 -2.1,-0.45 -2.925,-1.2c-0.15,-0.15 -0.3,-0.3 -0.45,-0.525l0.675,-0.3c0.075,0.075 0.15,0.15 0.225,0.3c0.675,0.675 1.425,0.975 2.4,0.975c0.9,0 1.725,-0.3 2.4,-0.975c0.75,-0.45 1.125,-1.2 1.125,-2.025Z" style="fill:#373435;fill-rule:nonzero;"/><path id="_x34__3_" d="M73.302,15.883l-0.675,0l0,-1.5c-0.075,0.15 -0.3,0.3 -0.45,0.45c-0.825,0.825 -1.8,1.2 -2.925,1.2c-1.125,0 -2.1,-0.375 -2.925,-1.2c-0.825,-0.825 -1.2,-1.8 -1.2,-2.925c0,-1.125 0.375,-2.1 1.2,-2.925c0.825,-0.825 1.8,-1.2 2.925,-1.2c1.125,0 2.1,0.375 2.925,1.2c0.15,0.15 0.3,0.3 0.45,0.45l0,-1.05l0.675,0l0,7.5ZM72.627,12.583l0,-1.35c-0.075,-0.675 -0.45,-1.275 -0.9,-1.725c-0.675,-0.675 -1.425,-0.975 -2.4,-0.975c-0.9,0 -1.725,0.3 -2.4,0.975c-0.675,0.675 -0.975,1.425 -0.975,2.4c0,0.9 0.3,1.725 0.975,2.4c0.675,0.675 1.425,0.975 2.4,0.975c0.9,0 1.725,-0.3 2.4,-1.05c0.45,-0.375 0.75,-0.975 0.9,-1.65Z" style="fill:#373435;fill-rule:nonzero;"/><path id="_x35__3_" d="M76.227,10.108l0,5.7l-0.675,0l0,-7.425l0.675,0l0,0.45c0.6,-0.6 1.35,-0.9 2.175,-0.9c0.9,0 1.575,0.3 2.1,0.825c0.525,0.525 0.825,1.275 0.9,2.025l0,5.025l-0.675,0l0,-4.875c0,-0.675 -0.225,-1.2 -0.675,-1.65c-0.45,-0.45 -0.975,-0.675 -1.65,-0.675c-0.675,0 -1.125,0.225 -1.65,0.675c-0.225,0.3 -0.375,0.525 -0.525,0.825Z" style="fill:#373435;fill-rule:nonzero;"/><path id="_x36__3_" d="M85.677,12.058c-0.6,-0.3 -0.975,-0.6 -1.2,-0.825c-0.3,-0.3 -0.525,-0.75 -0.525,-1.275c0,-0.525 0.15,-0.9 0.525,-1.275c0.3,-0.3 0.75,-0.525 1.275,-0.525c0.525,0 0.9,0.15 1.275,0.45c0.3,0.3 0.45,0.675 0.45,1.05l0,0.075l-0.6,0.225c-0.075,-0.375 -0.15,-0.675 -0.375,-0.9c-0.225,-0.225 -0.45,-0.3 -0.75,-0.3c-0.3,0 -0.525,0.075 -0.75,0.3c-0.225,0.225 -0.3,0.45 -0.3,0.75c0,0.3 0.075,0.525 0.3,0.75c0.075,0.075 0.375,0.3 0.825,0.6c0.675,0.375 1.05,0.675 1.35,0.9c0.45,0.45 0.675,0.9 0.675,1.575c0,0.6 -0.225,1.125 -0.675,1.575c-0.45,0.45 -0.9,0.675 -1.575,0.675c-0.6,0 -1.125,-0.225 -1.575,-0.675c-0.45,-0.45 -0.675,-0.9 -0.675,-1.425l0.675,-0.15c0,0.45 0.15,0.825 0.45,1.05c0.3,0.3 0.675,0.45 1.05,0.45c0.45,0 0.75,-0.15 1.05,-0.45c0.3,-0.3 0.45,-0.675 0.45,-1.05c0,-0.375 -0.15,-0.75 -0.45,-1.05c-0.15,0 -0.45,-0.15 -0.9,-0.525Z" style="fill:#373435;fill-rule:nonzero;"/><path id="_x37__3_" d="M89.427,14.608c0.15,0 0.3,0.075 0.45,0.225c0.075,0.075 0.225,0.3 0.225,0.45c0,0.15 -0.075,0.375 -0.225,0.45c-0.075,0.075 -0.3,0.225 -0.45,0.225c-0.15,0 -0.3,-0.075 -0.45,-0.225c-0.075,-0.075 -0.225,-0.3 -0.225,-0.45c0,-0.15 0.075,-0.3 0.225,-0.45c0.075,-0.075 0.225,-0.225 0.45,-0.225Z" style="fill:#373435;fill-rule:nonzero;"/><path id="_x38__3_" d="M92.802,8.533l0,7.425l-0.675,0l0,-7.425l0.675,0ZM92.502,5.908c0.15,0 0.3,0.075 0.45,0.225c0.075,0.075 0.225,0.3 0.225,0.45c0,0.225 -0.075,0.375 -0.225,0.45c-0.075,0.075 -0.3,0.225 -0.45,0.225c-0.15,0 -0.3,-0.075 -0.45,-0.225c-0.075,-0.075 -0.225,-0.3 -0.225,-0.45c0,-0.15 0.075,-0.3 0.225,-0.45c0.075,-0.075 0.225,-0.225 0.45,-0.225Z" style="fill:#373435;fill-rule:nonzero;"/><path id="_x39__3_" d="M94.752,11.908c0,-1.125 0.45,-2.1 1.2,-2.925c0.825,-0.825 1.8,-1.2 2.925,-1.2c1.125,0 2.1,0.375 2.925,1.2c0.825,0.825 1.2,1.8 1.2,2.925c0,1.125 -0.375,2.1 -1.2,2.925c-0.825,0.825 -1.8,1.2 -2.925,1.2c-1.125,0 -2.1,-0.375 -2.925,-1.2c-0.825,-0.825 -1.2,-1.8 -1.2,-2.925ZM95.502,11.908c0,0.9 0.3,1.725 0.975,2.4c0.675,0.675 1.425,1.05 2.4,1.05c0.9,0 1.725,-0.3 2.4,-1.05c0.675,-0.675 0.975,-1.425 0.975,-2.4c0,-0.9 -0.3,-1.725 -0.975,-2.4c-0.675,-0.675 -1.425,-0.975 -2.4,-0.975c-0.9,0 -1.725,0.3 -2.4,0.975c-0.675,0.6 -0.975,1.425 -0.975,2.4Z" style="fill:#373435;fill-rule:nonzero;"/></g><g id="logo"><path d="M14.375,0.65c7.2,0 12.975,5.85 12.975,12.975c0,7.125 -5.85,12.975 -12.975,12.975c-6.75,0 -12.225,-5.1 -12.975,-11.625l0.3,0c0.675,6.45 6.075,11.325 12.675,11.325c7.05,0 12.75,-5.7 12.75,-12.75c0,-7.05 -5.7,-12.75 -12.75,-12.75c-2.025,0 -3.9,0.45 -5.625,1.275l0,-0.3c1.725,-0.675 3.6,-1.125 5.625,-1.125Z" style="fill:#373435;fill-rule:nonzero;stroke-width:0.75px;stroke:#373435;"/><g><path d="M8.9,2.15c0.075,0 0.075,0.075 0.15,0.075c1.275,5.7 4.35,10.5 9,14.025c1.425,1.05 3,2.025 4.725,2.7c0.45,0.225 0.975,0.45 1.425,0.6c0.15,0.075 0.375,0.075 0.6,0.15c0.075,0 0.075,0.075 0.075,0.15c0,0.075 -0.075,0.075 -0.15,0.075c-0.225,-0.075 -0.375,-0.075 -0.6,-0.15c-0.45,-0.15 -1.05,-0.375 -1.5,-0.6c-1.65,-0.75 -3.3,-1.65 -4.725,-2.775c-4.5,-3.375 -7.5,-7.95 -8.925,-13.35c0,0.15 0,0.3 -0.075,0.45c-0.075,1.05 -0.3,2.25 -0.675,3.225c-0.375,1.125 -0.9,2.25 -1.5,3.15c-0.225,2.4 -0.075,4.8 0.525,7.125c0.75,3.15 2.175,6 4.05,8.55c0.075,0.075 0.075,0.15 -0.075,0.225c-0.075,0.075 -0.15,0.075 -0.225,-0.075c-1.95,-2.625 -3.375,-5.475 -4.125,-8.625c-0.525,-2.25 -0.675,-4.5 -0.525,-6.75c-1.125,1.65 -2.625,3.075 -4.5,4.125c-0.075,0.075 -0.15,0 -0.15,-0.075c-0.075,-0.075 0,-0.15 0.075,-0.15c1.95,-1.125 3.525,-2.625 4.65,-4.425c0,-0.075 0,-0.15 0,-0.3c0.15,-1.8 0.6,-3.6 1.125,-5.4c0.15,-0.525 0.375,-1.05 0.6,-1.5c0.075,-0.15 0.15,-0.375 0.3,-0.525c0.075,-0.075 0.075,-0.075 0.15,-0.075c0,-0.075 0.075,-0.075 0.075,-0.075l0.225,0.225ZM6.8,9.35c0.45,-0.825 0.9,-1.725 1.2,-2.625c0.3,-1.05 0.6,-2.1 0.675,-3.15c0.075,-0.3 0.075,-0.675 0.075,-0.975c0,-0.075 0,-0.075 0,-0.15c-0.075,0.15 -0.15,0.3 -0.225,0.45c-0.225,0.45 -0.375,0.975 -0.6,1.5c-0.525,1.65 -0.9,3.3 -1.125,4.95ZM8.525,2.3c-0.075,0.075 -0.225,0.075 -0.3,0.225c-0.3,0.15 -0.525,0.375 -0.825,0.525c-0.9,0.675 -1.65,1.425 -2.4,2.25c-0.975,1.125 -1.8,2.4 -2.4,3.825c-0.675,1.725 -1.05,3.6 -0.975,5.475c0,0.075 -0.075,0.15 -0.075,0.15c-0.075,0 -0.15,-0.075 -0.15,-0.075c-0.075,-1.95 0.3,-3.75 0.975,-5.55c0.6,-1.425 1.425,-2.775 2.4,-3.9c0.75,-0.9 1.575,-1.65 2.475,-2.325c0.3,-0.225 0.525,-0.375 0.825,-0.6c0.075,-0.075 0.225,-0.15 0.3,-0.225c0.075,-0.075 0.15,0 0.15,0.075c0.075,0.075 0,0.15 0,0.15ZM23.375,5.225c-0.15,0.075 -0.3,0.075 -0.45,0.075c-0.375,0.075 -0.75,0.15 -1.05,0.225c-1.2,0.225 -2.4,0.3 -3.675,0.3c-3.375,-0.075 -6.675,-1.125 -9,-3.75c-0.075,-0.075 -0.075,-0.15 0,-0.225c0.075,-0.075 0.15,-0.075 0.225,0c2.25,2.55 5.475,3.6 8.85,3.6c1.2,0 2.4,-0.075 3.6,-0.3c0.375,-0.075 0.75,-0.15 1.05,-0.225c0.15,-0.075 0.3,-0.075 0.45,-0.075c0.075,0 0.15,0 0.15,0.075c0,0.15 0,0.3 -0.15,0.3Z" style="fill:#373435;fill-rule:nonzero;stroke-width:0.75px;stroke:#373435;"/><circle cx="8.975" cy="1.925" r="0.9" style="fill:#373435;stroke-width:0.75px;stroke:#373435;"/><circle cx="23.9" cy="4.925" r="0.9" style="fill:#373435;stroke-width:0.75px;stroke:#373435;"/><circle cx="25.475" cy="20.15" r="0.9" style="fill:#373435;stroke-width:0.75px;stroke:#373435;"/><circle cx="11.6" cy="26.375" r="0.9" style="fill:#373435;stroke-width:0.75px;stroke:#373435;"/><circle cx="1.55" cy="14.825" r="0.9" style="fill:#373435;stroke-width:0.75px;stroke:#373435;"/></g></g></svg>